<svg width="41" height="40" viewBox="0 0 41 40" fill="none" xmlns="http://www.w3.org/2000/svg">
<rect x="1.16663" y="0.5" width="39" height="39" rx="19.5" stroke="#E0B100"/>
<path d="M14.139 16.3894L17.3334 17.3116L20.8445 14.7616L15.8056 14.906C15.7563 14.9087 15.7085 14.924 15.6667 14.9505L14.0723 15.8672C14.0227 15.8946 13.9825 15.9364 13.9569 15.9869C13.9312 16.0375 13.9214 16.0946 13.9286 16.1509C13.9357 16.2071 13.9596 16.2599 13.9971 16.3024C14.0346 16.3449 14.084 16.3752 14.139 16.3894Z" fill="#E0B100"/>
<path d="M29.8445 13.5337L26.3445 12.7782C26.0502 12.7142 25.7455 12.7144 25.4512 12.7786C25.157 12.8429 24.8799 12.9696 24.639 13.1504L14.0667 20.8337L11.5279 20.7226C11.3824 20.7176 11.2391 20.7585 11.1182 20.8394C10.9972 20.9203 10.9047 21.0371 10.8538 21.1734C10.8028 21.3097 10.796 21.4586 10.8342 21.599C10.8724 21.7394 10.9537 21.8643 11.0667 21.9559L13.539 23.917C13.5797 23.9499 13.6281 23.9717 13.6797 23.9805C13.7312 23.9892 13.7842 23.9846 13.8334 23.967C14.539 23.6948 17.1667 22.3004 20.2723 20.5948L20.8945 26.9893C20.8998 27.0446 20.9201 27.0975 20.9532 27.1422C20.9864 27.1869 21.0311 27.2217 21.0825 27.2429C21.134 27.264 21.1902 27.2707 21.2452 27.2623C21.3002 27.2538 21.3518 27.2305 21.3945 27.1948L22.7834 26.0393C22.8594 25.9755 22.9106 25.887 22.9279 25.7893L24.2445 18.4059C26.4667 17.1726 28.589 15.9781 30.0834 15.1337C30.2385 15.0493 30.3639 14.9193 30.4426 14.7613C30.5213 14.6032 30.5496 14.4248 30.5235 14.2502C30.4974 14.0755 30.4183 13.9131 30.2969 13.785C30.1754 13.6568 30.0175 13.5691 29.8445 13.5337Z" fill="#E0B100"/>
</svg>
