<svg width="28" height="28" viewBox="0 0 28 28" fill="none" xmlns="http://www.w3.org/2000/svg">
<path d="M14.0001 0.666693C6.63619 0.666693 0.666748 6.63614 0.666748 14C0.666748 21.3639 6.63619 27.3334 14.0001 27.3334C21.364 27.3334 27.3334 21.3639 27.3334 14C27.3334 6.63614 21.364 0.666693 14.0001 0.666693ZM10.7362 19.5264H8.03619V10.8375H10.7362V19.5264ZM9.36952 9.77086C8.51675 9.77086 7.96536 9.16669 7.96536 8.41947C7.96536 7.65697 8.53341 7.07086 9.40425 7.07086C10.2751 7.07086 10.8084 7.65697 10.8251 8.41947C10.8251 9.16669 10.2751 9.77086 9.36952 9.77086ZM20.5973 19.5264H17.8973V14.7111C17.8973 13.5903 17.5056 12.8292 16.5292 12.8292C15.7834 12.8292 15.3404 13.3445 15.1445 13.8403C15.0723 14.0167 15.0542 14.2667 15.0542 14.5153V19.525H12.3529V13.6084C12.3529 12.5236 12.3181 11.6167 12.282 10.8361H14.6279L14.7515 12.0431H14.8056C15.1612 11.4764 16.032 10.6403 17.489 10.6403C19.2654 10.6403 20.5973 11.8306 20.5973 14.3889V19.5264Z" fill="#F5F5F5"/>
</svg>
